<mxfile host="app.diagrams.net" modified="2024-05-02T18:35:39.766Z" agent="Mozilla/5.0 (Windows NT 10.0; Win64; x64) AppleWebKit/537.36 (KHTML, like Gecko) Chrome/124.0.0.0 Safari/537.36 Edg/124.0.0.0" etag="gq1QMVF9qTab6XUOjPJZ" version="24.3.1" type="device">
  <diagram name="Copia di Page-1" id="Gbffc9I_ZuVZLGeT_cde">
    <mxGraphModel dx="2562" dy="1776" grid="1" gridSize="10" guides="1" tooltips="1" connect="1" arrows="1" fold="1" page="1" pageScale="1" pageWidth="850" pageHeight="1100" math="0" shadow="0" extFonts="Permanent Marker^https://fonts.googleapis.com/css?family=Permanent+Marker">
      <root>
        <mxCell id="rCRjPRR2EZK5iAuSauBO-0" />
        <mxCell id="rCRjPRR2EZK5iAuSauBO-1" parent="rCRjPRR2EZK5iAuSauBO-0" />
        <mxCell id="rCRjPRR2EZK5iAuSauBO-2" value="" style="shape=partialRectangle;connectable=0;fillColor=none;top=0;left=0;bottom=0;right=0;editable=1;overflow=hidden;whiteSpace=wrap;html=1;" parent="rCRjPRR2EZK5iAuSauBO-1" vertex="1">
          <mxGeometry x="40" y="190" width="30" height="30" as="geometry">
            <mxRectangle width="30" height="30" as="alternateBounds" />
          </mxGeometry>
        </mxCell>
        <mxCell id="rCRjPRR2EZK5iAuSauBO-3" value="&lt;b&gt;&lt;font style=&quot;font-size: 24px;&quot;&gt;Prodotti&lt;/font&gt;&lt;/b&gt;" style="swimlane;childLayout=stackLayout;horizontal=1;startSize=50;horizontalStack=0;rounded=1;fontSize=14;fontStyle=0;strokeWidth=2;resizeParent=0;resizeLast=1;shadow=0;dashed=0;align=center;arcSize=4;whiteSpace=wrap;html=1;" parent="rCRjPRR2EZK5iAuSauBO-1" vertex="1">
          <mxGeometry x="770" y="580" width="470" height="210" as="geometry" />
        </mxCell>
        <mxCell id="rCRjPRR2EZK5iAuSauBO-4" value="&lt;font style=&quot;&quot;&gt;&lt;b style=&quot;font-size: 18px;&quot;&gt;&lt;font style=&quot;&quot;&gt;ProdottoID&amp;nbsp;&lt;/font&gt;&amp;nbsp; &amp;nbsp; &amp;nbsp; &amp;nbsp; &amp;nbsp; &amp;nbsp;&amp;nbsp;&lt;/b&gt;&lt;font style=&quot;font-size: 16px;&quot;&gt;VARCHAR(50)&lt;/font&gt;&lt;/font&gt;&lt;div&gt;&lt;font size=&quot;3&quot;&gt;&lt;font style=&quot;&quot;&gt;Nome_Prodotto&lt;/font&gt;&amp;nbsp; &amp;nbsp; &amp;nbsp; &amp;nbsp; &amp;nbsp; &amp;nbsp;VARCHAR(50)&lt;/font&gt;&lt;/div&gt;&lt;div&gt;&lt;font size=&quot;3&quot;&gt;&lt;span style=&quot;background-color: initial;&quot;&gt;&lt;font style=&quot;&quot;&gt;Categoria&lt;/font&gt;&amp;nbsp; &amp;nbsp; &amp;nbsp; &amp;nbsp; &amp;nbsp; &amp;nbsp; &amp;nbsp; &amp;nbsp; &amp;nbsp; &amp;nbsp; &amp;nbsp;VARCHAR(50)&lt;/span&gt;&lt;br&gt;&lt;/font&gt;&lt;/div&gt;&lt;div&gt;&lt;font size=&quot;3&quot;&gt;Prezzo&amp;nbsp; &amp;nbsp; &amp;nbsp; &amp;nbsp; &amp;nbsp; &amp;nbsp; &amp;nbsp; &amp;nbsp; &amp;nbsp; &amp;nbsp; &amp;nbsp; &amp;nbsp; &amp;nbsp; DECIMAL(10,2)&lt;/font&gt;&lt;/div&gt;&lt;div&gt;&lt;font size=&quot;3&quot;&gt;&lt;font style=&quot;&quot;&gt;QuantitàMagazzino&lt;/font&gt;&amp;nbsp; &amp;nbsp; &amp;nbsp; INT&lt;/font&gt;&lt;/div&gt;" style="align=left;strokeColor=none;fillColor=none;spacingLeft=4;fontSize=12;verticalAlign=top;resizable=0;rotatable=0;part=1;html=1;" parent="rCRjPRR2EZK5iAuSauBO-3" vertex="1">
          <mxGeometry y="50" width="470" height="160" as="geometry" />
        </mxCell>
        <mxCell id="rCRjPRR2EZK5iAuSauBO-5" value="&lt;b&gt;&lt;font style=&quot;font-size: 24px;&quot;&gt;Ordini&lt;/font&gt;&lt;/b&gt;" style="swimlane;childLayout=stackLayout;horizontal=1;startSize=50;horizontalStack=0;rounded=1;fontSize=14;fontStyle=0;strokeWidth=2;resizeParent=0;resizeLast=1;shadow=0;dashed=0;align=center;arcSize=4;whiteSpace=wrap;html=1;" parent="rCRjPRR2EZK5iAuSauBO-1" vertex="1">
          <mxGeometry x="1490" y="200" width="540" height="230" as="geometry" />
        </mxCell>
        <mxCell id="rCRjPRR2EZK5iAuSauBO-6" value="&lt;div&gt;&lt;font style=&quot;font-size: 18px;&quot;&gt;&lt;b&gt;&lt;font style=&quot;&quot;&gt;OrdineID&lt;/font&gt;&lt;/b&gt;&amp;nbsp; &amp;nbsp; &amp;nbsp; &amp;nbsp; &amp;nbsp; &amp;nbsp; &amp;nbsp; &amp;nbsp; &amp;nbsp; &amp;nbsp; &amp;nbsp; &amp;nbsp; &amp;nbsp; &amp;nbsp; &amp;nbsp;&lt;/font&gt;&lt;font style=&quot;font-size: 16px;&quot;&gt;VARCHAR(50)&lt;/font&gt;&lt;/div&gt;&lt;div&gt;&lt;span style=&quot;background-color: initial;&quot;&gt;&lt;font size=&quot;3&quot;&gt;&lt;font style=&quot;&quot;&gt;ProdottoID&lt;/font&gt;&amp;nbsp; &amp;nbsp; &amp;nbsp; &amp;nbsp; &amp;nbsp; &amp;nbsp; &amp;nbsp; &amp;nbsp; &amp;nbsp; &amp;nbsp; &amp;nbsp; &amp;nbsp; &amp;nbsp; &amp;nbsp; &amp;nbsp; &amp;nbsp; &amp;nbsp;VARCHAR(50)&lt;/font&gt;&lt;/span&gt;&lt;/div&gt;&lt;div&gt;&lt;font size=&quot;3&quot;&gt;&lt;font style=&quot;&quot;&gt;MagazzinoID&amp;nbsp;&lt;/font&gt;&amp;nbsp; &amp;nbsp; &amp;nbsp; &amp;nbsp; &amp;nbsp; &amp;nbsp; &amp;nbsp; &amp;nbsp; &amp;nbsp; &amp;nbsp; &amp;nbsp; &amp;nbsp; &amp;nbsp; &amp;nbsp; VARCHAR(50)&lt;/font&gt;&lt;/div&gt;&lt;div&gt;&lt;font size=&quot;3&quot;&gt;&lt;font style=&quot;&quot;&gt;QuantitàOrdinata&lt;/font&gt;&amp;nbsp; &amp;nbsp; &amp;nbsp; &amp;nbsp; &amp;nbsp; &amp;nbsp; &amp;nbsp; &amp;nbsp; &amp;nbsp; &amp;nbsp; &amp;nbsp; &amp;nbsp;INT&lt;/font&gt;&lt;/div&gt;&lt;div&gt;&lt;font size=&quot;3&quot;&gt;&lt;font style=&quot;&quot;&gt;DataOrdine&lt;/font&gt;&lt;span style=&quot;background-color: initial;&quot;&gt;&amp;nbsp; &amp;nbsp; &amp;nbsp; &amp;nbsp; &amp;nbsp; &amp;nbsp; &amp;nbsp; &amp;nbsp; &amp;nbsp; &amp;nbsp; &amp;nbsp; &amp;nbsp; &amp;nbsp; &amp;nbsp; &amp;nbsp; &amp;nbsp; DATE&lt;/span&gt;&lt;/font&gt;&lt;/div&gt;&lt;div&gt;&lt;font size=&quot;3&quot;&gt;FOREIGN KEY (ProdottoID) REFERENCES Prodotti(ProdottoID)&lt;/font&gt;&lt;/div&gt;&lt;div&gt;&lt;font size=&quot;3&quot;&gt;FOREIGN KEY (MagazzinoID) REFERENCES Magazzini(MagazzinoID)&lt;/font&gt;&lt;/div&gt;" style="align=left;strokeColor=none;fillColor=none;spacingLeft=4;fontSize=12;verticalAlign=top;resizable=0;rotatable=0;part=1;html=1;" parent="rCRjPRR2EZK5iAuSauBO-5" vertex="1">
          <mxGeometry y="50" width="540" height="180" as="geometry" />
        </mxCell>
        <mxCell id="rCRjPRR2EZK5iAuSauBO-7" value="&lt;b&gt;&lt;font style=&quot;font-size: 24px;&quot;&gt;Magazzini&lt;/font&gt;&lt;/b&gt;" style="swimlane;childLayout=stackLayout;horizontal=1;startSize=50;horizontalStack=0;rounded=1;fontSize=14;fontStyle=0;strokeWidth=2;resizeParent=0;resizeLast=1;shadow=0;dashed=0;align=center;arcSize=4;whiteSpace=wrap;html=1;" parent="rCRjPRR2EZK5iAuSauBO-1" vertex="1">
          <mxGeometry x="770" width="450" height="180" as="geometry" />
        </mxCell>
        <mxCell id="rCRjPRR2EZK5iAuSauBO-8" value="&lt;div&gt;&lt;font style=&quot;&quot;&gt;&lt;b style=&quot;font-size: 18px;&quot;&gt;&amp;nbsp;&lt;font style=&quot;&quot;&gt;MagazzinoID&lt;/font&gt;&amp;nbsp; &amp;nbsp; &amp;nbsp; &amp;nbsp; &amp;nbsp; &amp;nbsp;&lt;/b&gt;&lt;font style=&quot;font-size: 16px;&quot;&gt;VARCHAR(50)&lt;/font&gt;&lt;/font&gt;&lt;/div&gt;&lt;div&gt;&lt;font size=&quot;3&quot;&gt;&lt;b&gt;&amp;nbsp;&lt;/b&gt;&lt;font style=&quot;&quot;&gt;NomeMagazzino&lt;/font&gt;&amp;nbsp; &amp;nbsp; &amp;nbsp; &amp;nbsp; &amp;nbsp; VARCHAR(50)&lt;/font&gt;&lt;/div&gt;&lt;div&gt;&lt;font size=&quot;3&quot; style=&quot;&quot;&gt;&amp;nbsp;PRIMARY KEY (MagazzinoID)&lt;/font&gt;&lt;/div&gt;" style="align=left;strokeColor=none;fillColor=none;spacingLeft=4;fontSize=12;verticalAlign=top;resizable=0;rotatable=0;part=1;html=1;" parent="rCRjPRR2EZK5iAuSauBO-7" vertex="1">
          <mxGeometry y="50" width="450" height="130" as="geometry" />
        </mxCell>
        <mxCell id="emyaIeg4bKM03BWqhsvi-2" style="edgeStyle=orthogonalEdgeStyle;rounded=0;orthogonalLoop=1;jettySize=auto;html=1;exitX=0.5;exitY=0;exitDx=0;exitDy=0;entryX=0;entryY=0.25;entryDx=0;entryDy=0;" parent="rCRjPRR2EZK5iAuSauBO-1" source="rCRjPRR2EZK5iAuSauBO-9" target="rCRjPRR2EZK5iAuSauBO-8" edge="1">
          <mxGeometry relative="1" as="geometry" />
        </mxCell>
        <mxCell id="rCRjPRR2EZK5iAuSauBO-9" value="&lt;b&gt;&lt;font style=&quot;font-size: 24px;&quot;&gt;Negozio&lt;/font&gt;&lt;/b&gt;" style="swimlane;childLayout=stackLayout;horizontal=1;startSize=50;horizontalStack=0;rounded=1;fontSize=14;fontStyle=0;strokeWidth=2;resizeParent=0;resizeLast=1;shadow=0;dashed=0;align=center;arcSize=4;whiteSpace=wrap;html=1;" parent="rCRjPRR2EZK5iAuSauBO-1" vertex="1">
          <mxGeometry x="200" y="380" width="520" height="260" as="geometry" />
        </mxCell>
        <mxCell id="rCRjPRR2EZK5iAuSauBO-10" value="&lt;div&gt;&lt;font style=&quot;&quot;&gt;&lt;b style=&quot;font-size: 18px;&quot;&gt;&lt;font style=&quot;&quot;&gt;NegozioID&amp;nbsp;&lt;/font&gt;&amp;nbsp; &amp;nbsp; &amp;nbsp; &amp;nbsp; &amp;nbsp; &amp;nbsp; &amp;nbsp; &amp;nbsp; &amp;nbsp; &amp;nbsp; &amp;nbsp;&lt;/b&gt;&lt;font style=&quot;font-size: 16px;&quot;&gt;VARCHAR(50)&lt;/font&gt;&lt;/font&gt;&lt;/div&gt;&lt;div&gt;&lt;font size=&quot;3&quot; style=&quot;&quot;&gt;&lt;font style=&quot;&quot;&gt;MagazzinoID&lt;/font&gt;&amp;nbsp; &amp;nbsp; &amp;nbsp; &amp;nbsp; &amp;nbsp; &amp;nbsp; &amp;nbsp; &amp;nbsp; &amp;nbsp; &amp;nbsp; &amp;nbsp; &amp;nbsp; VARCHAR(50)&lt;/font&gt;&lt;/div&gt;&lt;div&gt;&lt;font size=&quot;3&quot;&gt;&lt;font style=&quot;&quot;&gt;Nome_Negozio&lt;/font&gt;&amp;nbsp; &amp;nbsp; &amp;nbsp; &amp;nbsp; &amp;nbsp; &amp;nbsp; &amp;nbsp; &amp;nbsp; &amp;nbsp; &amp;nbsp; VARCHAR(50)&lt;/font&gt;&lt;/div&gt;&lt;div&gt;&lt;font size=&quot;3&quot;&gt;&lt;font style=&quot;&quot;&gt;RegioneID&lt;/font&gt;&amp;nbsp; &amp;nbsp; &amp;nbsp; &amp;nbsp; &amp;nbsp; &amp;nbsp; &amp;nbsp; &amp;nbsp; &amp;nbsp; &amp;nbsp; &amp;nbsp; &amp;nbsp; &amp;nbsp; &amp;nbsp; &amp;nbsp;VARCHAR(50)&lt;/font&gt;&lt;/div&gt;&lt;div&gt;&lt;font size=&quot;3&quot;&gt;PRIMARY KEY (NegozioID),&lt;/font&gt;&lt;/div&gt;&lt;div&gt;&lt;font size=&quot;3&quot;&gt;FOREIGN KEY (MagazzinoID) REFERENCES Magazzini(MagazzinoID)&lt;/font&gt;&lt;/div&gt;&lt;div&gt;&lt;font size=&quot;3&quot;&gt;FOREIGN KEY (RegioneID) REFERENCES Regioni (RegioneID)&lt;/font&gt;&lt;/div&gt;" style="align=left;strokeColor=none;fillColor=none;spacingLeft=4;fontSize=12;verticalAlign=top;resizable=0;rotatable=0;part=1;html=1;" parent="rCRjPRR2EZK5iAuSauBO-9" vertex="1">
          <mxGeometry y="50" width="520" height="210" as="geometry" />
        </mxCell>
        <mxCell id="rCRjPRR2EZK5iAuSauBO-11" value="&lt;b&gt;&lt;font style=&quot;font-size: 24px;&quot;&gt;Regioni&lt;/font&gt;&lt;/b&gt;" style="swimlane;childLayout=stackLayout;horizontal=1;startSize=50;horizontalStack=0;rounded=1;fontSize=14;fontStyle=0;strokeWidth=2;resizeParent=0;resizeLast=1;shadow=0;dashed=0;align=center;arcSize=4;whiteSpace=wrap;html=1;" parent="rCRjPRR2EZK5iAuSauBO-1" vertex="1">
          <mxGeometry x="-320" y="402.5" width="370" height="215" as="geometry" />
        </mxCell>
        <mxCell id="rCRjPRR2EZK5iAuSauBO-12" value="&lt;div&gt;&lt;b&gt;&lt;font style=&quot;font-size: 18px;&quot;&gt;&lt;font style=&quot;&quot;&gt;RegioneID&lt;/font&gt;&amp;nbsp;&lt;/font&gt;&lt;font style=&quot;font-size: 14px;&quot;&gt; &lt;/font&gt;&amp;nbsp; &amp;nbsp; &amp;nbsp; &amp;nbsp;&lt;font style=&quot;font-size: 14px;&quot;&gt;&amp;nbsp; &amp;nbsp; &amp;nbsp;&amp;nbsp;&lt;/font&gt;&lt;/b&gt;&lt;font size=&quot;3&quot;&gt;VARCHAR(50) PRIMARY KEY&lt;/font&gt;&lt;/div&gt;&lt;div&gt;&lt;font size=&quot;3&quot;&gt;&lt;font style=&quot;&quot;&gt;&lt;font style=&quot;&quot;&gt;Nome_Regione&lt;/font&gt;&amp;nbsp;&lt;/font&gt; &amp;nbsp; &amp;nbsp; &amp;nbsp; VARCHAR(50)&lt;/font&gt;&lt;/div&gt;&lt;div&gt;&lt;b&gt;&amp;nbsp;&lt;/b&gt;&lt;/div&gt;" style="align=left;strokeColor=none;fillColor=none;spacingLeft=4;fontSize=12;verticalAlign=top;resizable=0;rotatable=0;part=1;html=1;" parent="rCRjPRR2EZK5iAuSauBO-11" vertex="1">
          <mxGeometry y="50" width="370" height="165" as="geometry" />
        </mxCell>
        <mxCell id="rCRjPRR2EZK5iAuSauBO-13" value="&lt;b&gt;&lt;font style=&quot;font-size: 24px;&quot;&gt;ScorteMagazzino&lt;/font&gt;&lt;/b&gt;" style="swimlane;childLayout=stackLayout;horizontal=1;startSize=50;horizontalStack=0;rounded=1;fontSize=14;fontStyle=0;strokeWidth=2;resizeParent=0;resizeLast=1;shadow=0;dashed=0;align=center;arcSize=4;whiteSpace=wrap;html=1;" parent="rCRjPRR2EZK5iAuSauBO-1" vertex="1">
          <mxGeometry x="763" y="280" width="557" height="250" as="geometry" />
        </mxCell>
        <mxCell id="rCRjPRR2EZK5iAuSauBO-14" value="&lt;div&gt;&lt;font style=&quot;&quot;&gt;&lt;b style=&quot;&quot;&gt;&lt;span style=&quot;font-size: 18px;&quot;&gt;&amp;nbsp; &amp;nbsp; &lt;/span&gt;&lt;font style=&quot;font-size: 18px;&quot;&gt;MagazzinoID&amp;nbsp;&lt;/font&gt;&lt;span style=&quot;font-size: 18px;&quot;&gt;&amp;nbsp; &amp;nbsp; &amp;nbsp; &amp;nbsp; &amp;nbsp; &amp;nbsp; &amp;nbsp; &amp;nbsp; &amp;nbsp; &amp;nbsp; &amp;nbsp; &amp;nbsp; &amp;nbsp; &amp;nbsp;&lt;/span&gt;&lt;font style=&quot;font-size: 16px;&quot;&gt; &lt;/font&gt;&lt;/b&gt;&lt;font size=&quot;3&quot;&gt;VARCHAR(50)&lt;/font&gt;&lt;/font&gt;&lt;/div&gt;&lt;div&gt;&lt;font size=&quot;3&quot;&gt;&amp;nbsp; &amp;nbsp; &lt;font style=&quot;&quot;&gt;ProdottoID&amp;nbsp; &lt;/font&gt;&amp;nbsp; &amp;nbsp; &amp;nbsp; &amp;nbsp; &amp;nbsp; &amp;nbsp; &amp;nbsp; &amp;nbsp; &amp;nbsp; &amp;nbsp; &amp;nbsp; &amp;nbsp; &amp;nbsp; &amp;nbsp; &amp;nbsp; &amp;nbsp; &amp;nbsp; &amp;nbsp; &amp;nbsp; &amp;nbsp;VARCHAR(50)&lt;/font&gt;&lt;/div&gt;&lt;div&gt;&lt;font size=&quot;3&quot;&gt;&amp;nbsp; &amp;nbsp; &lt;font style=&quot;&quot;&gt;QuantitàScorteMagazzino&amp;nbsp;&lt;/font&gt;&amp;nbsp; &amp;nbsp; &amp;nbsp; &amp;nbsp; &amp;nbsp; &amp;nbsp; &amp;nbsp; &amp;nbsp; VARCHAR(50)&lt;/font&gt;&lt;/div&gt;&lt;div&gt;&lt;font size=&quot;3&quot;&gt;&amp;nbsp; &amp;nbsp; PRIMARY KEY (MagazzinoID)&lt;/font&gt;&lt;/div&gt;&lt;div&gt;&lt;font size=&quot;3&quot;&gt;&amp;nbsp; &amp;nbsp; FOREIGN KEY (MagazzinoID) REFERENCES Magazzini(MagazzinoID)&lt;/font&gt;&lt;/div&gt;&lt;div&gt;&lt;font size=&quot;3&quot;&gt;&amp;nbsp; &amp;nbsp; FOREIGN KEY (ProdottoID) REFERENCES Prodotti(ProdottoID)&lt;/font&gt;&lt;/div&gt;" style="align=left;strokeColor=none;fillColor=none;spacingLeft=4;fontSize=12;verticalAlign=top;resizable=0;rotatable=0;part=1;html=1;" parent="rCRjPRR2EZK5iAuSauBO-13" vertex="1">
          <mxGeometry y="50" width="557" height="200" as="geometry" />
        </mxCell>
        <mxCell id="rCRjPRR2EZK5iAuSauBO-28" value="&lt;b&gt;&lt;font style=&quot;font-size: 24px;&quot;&gt;Transazioni&lt;/font&gt;&lt;/b&gt;" style="swimlane;childLayout=stackLayout;horizontal=1;startSize=50;horizontalStack=0;rounded=1;fontSize=14;fontStyle=0;strokeWidth=2;resizeParent=0;resizeLast=1;shadow=0;dashed=0;align=center;arcSize=4;whiteSpace=wrap;html=1;" parent="rCRjPRR2EZK5iAuSauBO-1" vertex="1">
          <mxGeometry x="770" y="860" width="580" height="290" as="geometry" />
        </mxCell>
        <mxCell id="rCRjPRR2EZK5iAuSauBO-29" value="&lt;div&gt;&lt;font style=&quot;&quot;&gt;&lt;b style=&quot;font-size: 18px;&quot;&gt;&amp;nbsp; &amp;nbsp;&lt;font style=&quot;&quot;&gt;TransazioneID&lt;/font&gt;&amp;nbsp; &amp;nbsp; &amp;nbsp; &amp;nbsp; &amp;nbsp; &amp;nbsp; &amp;nbsp; &amp;nbsp; &amp;nbsp; &amp;nbsp; &amp;nbsp; &amp;nbsp; &amp;nbsp;&lt;/b&gt;&lt;font style=&quot;font-size: 16px;&quot;&gt;VARCHAR(50) PRIMARY KEY&lt;/font&gt;&lt;/font&gt;&lt;/div&gt;&lt;div&gt;&lt;font size=&quot;3&quot;&gt;&amp;nbsp; &amp;nbsp; &lt;font style=&quot;&quot;&gt;NegozioID&amp;nbsp; &lt;/font&gt;&amp;nbsp; &amp;nbsp; &amp;nbsp; &amp;nbsp; &amp;nbsp; &amp;nbsp; &amp;nbsp; &amp;nbsp; &amp;nbsp; &amp;nbsp; &amp;nbsp; &amp;nbsp; &amp;nbsp; &amp;nbsp; &amp;nbsp; &amp;nbsp; &amp;nbsp; &amp;nbsp; VARCHAR(50)&lt;/font&gt;&lt;/div&gt;&lt;div&gt;&lt;font size=&quot;3&quot;&gt;&amp;nbsp; &amp;nbsp; &lt;font style=&quot;&quot;&gt;ProdottoID&amp;nbsp;&lt;/font&gt; &amp;nbsp; &amp;nbsp; &amp;nbsp; &amp;nbsp; &amp;nbsp; &amp;nbsp; &amp;nbsp; &amp;nbsp; &amp;nbsp; &amp;nbsp; &amp;nbsp; &amp;nbsp; &amp;nbsp; &amp;nbsp; &amp;nbsp; &amp;nbsp; &amp;nbsp; &amp;nbsp; VARCHAR(50)&lt;/font&gt;&lt;/div&gt;&lt;div&gt;&lt;font size=&quot;3&quot;&gt;&amp;nbsp; &lt;font style=&quot;&quot;&gt;&amp;nbsp; QuantitàVenduta&amp;nbsp; &lt;/font&gt;&amp;nbsp; &amp;nbsp; &amp;nbsp; &amp;nbsp; &amp;nbsp; &amp;nbsp; &amp;nbsp; &amp;nbsp; &amp;nbsp; &amp;nbsp; &amp;nbsp; &amp;nbsp; &amp;nbsp; &amp;nbsp;INT&lt;/font&gt;&lt;/div&gt;&lt;div&gt;&lt;font size=&quot;3&quot;&gt;&amp;nbsp; &amp;nbsp;&lt;font style=&quot;&quot;&gt; DataTransazione&lt;/font&gt;&amp;nbsp; &amp;nbsp; &amp;nbsp; &amp;nbsp; &amp;nbsp; &amp;nbsp; &amp;nbsp; &amp;nbsp; &amp;nbsp; &amp;nbsp; &amp;nbsp; &amp;nbsp; &amp;nbsp; &amp;nbsp; DATE&lt;/font&gt;&lt;/div&gt;&lt;div&gt;&lt;font size=&quot;3&quot;&gt;&amp;nbsp; &amp;nbsp; &lt;font style=&quot;&quot;&gt;FOREIGN KEY (NegozioID) REFERENCES Negozio(NegozioID)&lt;/font&gt;&lt;/font&gt;&lt;/div&gt;&lt;div&gt;&lt;font size=&quot;3&quot;&gt;&amp;nbsp; &amp;nbsp;FOREIGN KEY (ProdottoID) REFERENCES Prodotti(ProdottoID)&lt;/font&gt;&lt;/div&gt;" style="align=left;strokeColor=none;fillColor=none;spacingLeft=4;fontSize=12;verticalAlign=top;resizable=0;rotatable=0;part=1;html=1;" parent="rCRjPRR2EZK5iAuSauBO-28" vertex="1">
          <mxGeometry y="50" width="580" height="240" as="geometry" />
        </mxCell>
        <mxCell id="emyaIeg4bKM03BWqhsvi-1" style="edgeStyle=orthogonalEdgeStyle;rounded=0;orthogonalLoop=1;jettySize=auto;html=1;exitX=1;exitY=0.5;exitDx=0;exitDy=0;entryX=0;entryY=0.5;entryDx=0;entryDy=0;" parent="rCRjPRR2EZK5iAuSauBO-1" source="rCRjPRR2EZK5iAuSauBO-12" target="rCRjPRR2EZK5iAuSauBO-10" edge="1">
          <mxGeometry relative="1" as="geometry" />
        </mxCell>
        <mxCell id="emyaIeg4bKM03BWqhsvi-3" style="edgeStyle=orthogonalEdgeStyle;rounded=0;orthogonalLoop=1;jettySize=auto;html=1;exitX=1;exitY=0.25;exitDx=0;exitDy=0;entryX=0.5;entryY=0;entryDx=0;entryDy=0;" parent="rCRjPRR2EZK5iAuSauBO-1" source="rCRjPRR2EZK5iAuSauBO-8" target="rCRjPRR2EZK5iAuSauBO-5" edge="1">
          <mxGeometry relative="1" as="geometry" />
        </mxCell>
        <mxCell id="emyaIeg4bKM03BWqhsvi-4" style="edgeStyle=orthogonalEdgeStyle;rounded=0;orthogonalLoop=1;jettySize=auto;html=1;exitX=0.5;exitY=1;exitDx=0;exitDy=0;entryX=1;entryY=0.25;entryDx=0;entryDy=0;" parent="rCRjPRR2EZK5iAuSauBO-1" source="rCRjPRR2EZK5iAuSauBO-6" target="rCRjPRR2EZK5iAuSauBO-4" edge="1">
          <mxGeometry relative="1" as="geometry" />
        </mxCell>
        <mxCell id="emyaIeg4bKM03BWqhsvi-8" style="edgeStyle=orthogonalEdgeStyle;rounded=0;orthogonalLoop=1;jettySize=auto;html=1;exitX=0.5;exitY=1;exitDx=0;exitDy=0;entryX=0.5;entryY=0;entryDx=0;entryDy=0;" parent="rCRjPRR2EZK5iAuSauBO-1" source="rCRjPRR2EZK5iAuSauBO-8" target="rCRjPRR2EZK5iAuSauBO-13" edge="1">
          <mxGeometry relative="1" as="geometry" />
        </mxCell>
        <mxCell id="emyaIeg4bKM03BWqhsvi-9" style="edgeStyle=orthogonalEdgeStyle;rounded=0;orthogonalLoop=1;jettySize=auto;html=1;exitX=0.5;exitY=1;exitDx=0;exitDy=0;entryX=0.5;entryY=0;entryDx=0;entryDy=0;" parent="rCRjPRR2EZK5iAuSauBO-1" source="rCRjPRR2EZK5iAuSauBO-14" target="rCRjPRR2EZK5iAuSauBO-3" edge="1">
          <mxGeometry relative="1" as="geometry" />
        </mxCell>
        <mxCell id="emyaIeg4bKM03BWqhsvi-10" style="edgeStyle=orthogonalEdgeStyle;rounded=0;orthogonalLoop=1;jettySize=auto;html=1;exitX=0.5;exitY=1;exitDx=0;exitDy=0;" parent="rCRjPRR2EZK5iAuSauBO-1" source="rCRjPRR2EZK5iAuSauBO-4" target="rCRjPRR2EZK5iAuSauBO-28" edge="1">
          <mxGeometry relative="1" as="geometry" />
        </mxCell>
        <mxCell id="emyaIeg4bKM03BWqhsvi-11" style="edgeStyle=orthogonalEdgeStyle;rounded=0;orthogonalLoop=1;jettySize=auto;html=1;exitX=0.5;exitY=1;exitDx=0;exitDy=0;entryX=0;entryY=0.5;entryDx=0;entryDy=0;" parent="rCRjPRR2EZK5iAuSauBO-1" source="rCRjPRR2EZK5iAuSauBO-10" target="rCRjPRR2EZK5iAuSauBO-29" edge="1">
          <mxGeometry relative="1" as="geometry" />
        </mxCell>
        <mxCell id="hhgojUYuCis691cCg7q2-0" value="1,1" style="text;html=1;align=center;verticalAlign=middle;resizable=0;points=[];autosize=1;strokeColor=none;fillColor=none;" parent="rCRjPRR2EZK5iAuSauBO-1" vertex="1">
          <mxGeometry x="110" y="490" width="40" height="30" as="geometry" />
        </mxCell>
        <mxCell id="hhgojUYuCis691cCg7q2-4" value="1 ,N" style="text;html=1;align=center;verticalAlign=middle;resizable=0;points=[];autosize=1;strokeColor=none;fillColor=none;" parent="rCRjPRR2EZK5iAuSauBO-1" vertex="1">
          <mxGeometry x="500" y="190" width="50" height="30" as="geometry" />
        </mxCell>
        <mxCell id="hhgojUYuCis691cCg7q2-5" value="1,1" style="text;html=1;align=center;verticalAlign=middle;resizable=0;points=[];autosize=1;strokeColor=none;fillColor=none;" parent="rCRjPRR2EZK5iAuSauBO-1" vertex="1">
          <mxGeometry x="990" y="535" width="40" height="30" as="geometry" />
        </mxCell>
        <mxCell id="hhgojUYuCis691cCg7q2-6" value="1,1" style="text;html=1;align=center;verticalAlign=middle;resizable=0;points=[];autosize=1;strokeColor=none;fillColor=none;" parent="rCRjPRR2EZK5iAuSauBO-1" vertex="1">
          <mxGeometry x="500" y="840" width="40" height="30" as="geometry" />
        </mxCell>
        <mxCell id="hhgojUYuCis691cCg7q2-7" value="1,1" style="text;html=1;align=center;verticalAlign=middle;resizable=0;points=[];autosize=1;strokeColor=none;fillColor=none;" parent="rCRjPRR2EZK5iAuSauBO-1" vertex="1">
          <mxGeometry x="1000" y="210" width="40" height="30" as="geometry" />
        </mxCell>
        <mxCell id="hhgojUYuCis691cCg7q2-8" value="1,1" style="text;html=1;align=center;verticalAlign=middle;resizable=0;points=[];autosize=1;strokeColor=none;fillColor=none;" parent="rCRjPRR2EZK5iAuSauBO-1" vertex="1">
          <mxGeometry x="1000" y="810" width="40" height="30" as="geometry" />
        </mxCell>
        <mxCell id="hhgojUYuCis691cCg7q2-9" value="1 ,N" style="text;html=1;align=center;verticalAlign=middle;resizable=0;points=[];autosize=1;strokeColor=none;fillColor=none;" parent="rCRjPRR2EZK5iAuSauBO-1" vertex="1">
          <mxGeometry x="1580" y="70" width="50" height="30" as="geometry" />
        </mxCell>
        <mxCell id="hhgojUYuCis691cCg7q2-10" value="1,1" style="text;html=1;align=center;verticalAlign=middle;resizable=0;points=[];autosize=1;strokeColor=none;fillColor=none;" parent="rCRjPRR2EZK5iAuSauBO-1" vertex="1">
          <mxGeometry x="1590" y="660" width="40" height="30" as="geometry" />
        </mxCell>
      </root>
    </mxGraphModel>
  </diagram>
</mxfile>
